PathFileType	4	(X/Y/Z)	C:\Users\Biomechanik\SynologyDrive\AlexP\Athlete_03\Athlete_3_25_03_31\Squat_bar_01\marker_experimental.trc
DataRate	CameraRate	NumFrames	NumMarkers	Units	OrigDataRate	OrigDataStartFrame	OrigNumFrames
200.000000	200.000000	4	55	mm	200.000000	60	482
Frame#	Time	BL			BR			GLAB			RFHD			LFHD			C7			T6			SPINMOL			SPINM2			SPINM3			T12			BELTOL			BELT2			BELT3			SACROL			SACR2			SACR3			LTHOL			LTH2			LTH3			LSHAOL			LSHA2			LSHA3			LHEE			LTOE			LM5			RTHOL			RTH2			RTH3			RSHAOL			RSHA2			RSHA3			RHEE			RTOE			RM5			STRN			XIPH			LACR			LUAOL			LUA2			LUA3			LLAOL			LLA2			LLA3			LWRR			LWRU			RACR			RUAOL			RUA2			RUA3			RLAOL			RLA2			RLA3			RWRR			RWRU			
		X1	Y1	Z1	X2	Y2	Z2	X3	Y3	Z3	X4	Y4	Z4	X5	Y5	Z5	X6	Y6	Z6	X7	Y7	Z7	X8	Y8	Z8	X9	Y9	Z9	X10	Y10	Z10	X11	Y11	Z11	X12	Y12	Z12	X13	Y13	Z13	X14	Y14	Z14	X15	Y15	Z15	X16	Y16	Z16	X17	Y17	Z17	X18	Y18	Z18	X19	Y19	Z19	X20	Y20	Z20	X21	Y21	Z21	X22	Y22	Z22	X23	Y23	Z23	X24	Y24	Z24	X25	Y25	Z25	X26	Y26	Z26	X27	Y27	Z27	X28	Y28	Z28	X29	Y29	Z29	X30	Y30	Z30	X31	Y31	Z31	X32	Y32	Z32	X33	Y33	Z33	X34	Y34	Z34	X35	Y35	Z35	X36	Y36	Z36	X37	Y37	Z37	X38	Y38	Z38	X39	Y39	Z39	X40	Y40	Z40	X41	Y41	Z41	X42	Y42	Z42	X43	Y43	Z43	X44	Y44	Z44	X45	Y45	Z45	X46	Y46	Z46	X47	Y47	Z47	X48	Y48	Z48	X49	Y49	Z49	X50	Y50	Z50	X51	Y51	Z51	X52	Y52	Z52	X53	Y53	Z53	X54	Y54	Z54	X55	Y55	Z55	

61	0.3	132.6867523193359	1336.414916992188	-2236.998046875	210.6253662109375	1360.110229492188	-217.2658386230468	450.4232482910156	1551.631103515625	-1195.546875	399.3387756347656	1575.638916015625	-1132.609985351562	406.2818603515625	1573.709838867188	-1268.009887695312	217.7693939208984	1416.633422851562	-1201.100952148438	122.2806549072266	1267.193359375	-1208.7939453125	105.4632339477539	1234.321044921875	-1227.474975585938	98.58448791503906	1226.63623046875	-1178.33984375	90.28433227539062	1171.320434570312	-1213.643920898438	80.75326538085938	1104.607177734375	-1213.364990234375	54.32381439208984	1073.825805664062	-1230.343505859375	53.81999588012695	1070.069702148438	-1180.234619140625	36.62456893920898	1012.934265136719	-1209.975952148438	23.07210922241211	933.3820190429689	-1234.498901367188	23.42193603515625	930.1737060546876	-1182.896118164062	10.13175487518311	872.0383911132814	-1212.125854492188	128.1563262939453	661.8826904296876	-1440.197021484375	107.7638931274414	589.4816284179689	-1413.963134765625	145.6640472412109	602.8384399414064	-1444.437744140625	153.2780303955078	332.8511657714845	-1525.115112304688	111.1653747558594	267.8408813476564	-1506.588745117188	155.9296722412109	270.8988342285157	-1530.335815429688	109.1311111450195	68.73825073242196	-1466.697509765625	312.5787353515625	50.69179534912119	-1542.011596679688	236.1925048828125	27.05621528625498	-1621.071166992188	103.8500518798828	667.5317993164064	-988.6436157226562	158.3181457519531	635.3868408203126	-939.552978515625	128.2964935302734	612.7599487304689	-971.8820190429688	118.935791015625	350.8174438476563	-901.1155395507812	142.767822265625	281.3166503906251	-873.3628540039062	106.5511779785156	289.8391418457032	-906.1687622070312	89.53919982910156	62.50492095947271	-966.4906616210938	279.3055419921875	48.02299499511724	-868.4393310546875	189.9518432617188	38.1051750183106	-798.5398559570312	359.8636474609375	1282.709716796875	-1208.181396484375	350.2731628417969	1136.013671875	-1205.559692382812	253.7989196777344	1380.210693359375	-1368.313232421875	148.6624755859375	1254.818359375	-1456.103759765625	105.4338302612305	1207.294555664062	-1442.224853515625	136.5343933105469	1196.1083984375	-1481.50244140625	110.3801727294922	1126.199584960938	-1548.684692382812	179.412353515625	1127.698120117188	-1587.708618164062	148.2599182128906	1165.995483398438	-1576.559448242188	197.1619567871094	1248.9658203125	-1620.157104492188	206.6335906982422	1280.656127929688	-1548.795776367188	273.003662109375	1374.8291015625	-1042.538940429688	171.9348754882812	1252.224731445312	-958.3021850585936	153.0862426757812	1194.642456054688	-931.9710693359374	129.0139770507812	1205.821533203125	-976.8394775390624	156.4196472167969	1122.79443359375	-849.7901611328124	152.2044982910156	1201.390258789062	-835.4694213867186	190.8485870361328	1169.135620117188	-827.4962768554686	217.9925842285156	1257.26904296875	-805.2695922851561	236.779296875	1292.642333984375	-874.2487182617186	
62	0.305	133.0749053955078	1335.264038085938	-2236.978759765625	211.2091827392578	1359.0615234375	-217.2660827636718	451.0121154785156	1550.103759765625	-1195.53857421875	399.9214782714844	1574.1064453125	-1132.6005859375	406.8633728027344	1572.171630859375	-1267.994995117188	218.3203582763672	1415.384765625	-1201.083374023438	122.4825897216797	1266.152709960938	-1208.767700195312	105.5518569946289	1233.3642578125	-1227.479858398438	98.67990112304688	1225.674438476562	-1178.343627929688	90.15934753417969	1170.4013671875	-1213.676391601562	80.45330810546875	1103.71728515625	-1213.405151367188	53.87275695800781	1072.9599609375	-1230.407104492188	53.34926986694336	1069.2216796875	-1180.300659179688	35.98856735229492	1012.131896972656	-1210.028686523438	22.24028968811035	932.2396240234376	-1234.535888671875	22.61904907226562	929.1118774414064	-1182.929077148438	9.382599830627441	870.9160766601564	-1212.068359375	128.5601501464844	661.0011596679689	-1441.175048828125	108.4979248046875	588.3782348632814	-1415.399291992188	146.4447631835938	602.1065673828126	-1445.656494140625	154.4782409667969	332.7800598144532	-1526.392456054688	112.0773315429688	268.0135803222657	-1507.671142578125	156.8973083496094	270.7937316894532	-1531.3564453125	109.1491012573242	68.76776123046884	-1466.68994140625	312.5857543945312	50.68469619750986	-1542.007568359375	236.1931304931641	27.05808639526377	-1621.0703125	104.0579223632812	666.6534423828126	-987.5714721679688	158.7657470703125	635.0064086914064	-938.4254760742188	128.86767578125	612.0870361328126	-970.6519165039062	120.0062103271484	350.7497558593751	-899.8108520507812	143.6665649414062	281.0595092773438	-872.43017578125	107.4169158935547	289.8348388671876	-905.1149291992188	89.52588653564453	62.51993560791021	-966.4866943359375	279.3025817871094	48.01885604858403	-868.4283447265625	189.9542846679688	38.1074943542481	-798.5430908203125	360.1016845703125	1281.080200195312	-1208.191772460938	350.1005859375	1134.411987304688	-1205.5634765625	254.3390350341797	1378.839477539062	-1368.33642578125	148.9213562011719	1253.6669921875	-1456.154174804688	105.5937576293945	1206.236206054688	-1442.277465820312	136.5639343261719	1194.982788085938	-1481.578491210938	110.3990783691406	1125.146240234375	-1548.739013671875	179.4345550537109	1126.517822265625	-1587.76025390625	148.3772277832031	1164.873413085938	-1576.5986328125	197.4281311035156	1247.7568359375	-1620.173706054688	206.9616394042969	1279.406494140625	-1548.802124023438	273.5589904785156	1373.421264648438	-1042.522827148438	172.2371978759766	1251.059326171875	-958.2186889648436	153.2704315185547	1193.519165039062	-931.8484497070311	129.2037506103516	1204.730224609375	-976.7190551757811	156.4858245849609	1121.734008789062	-849.6392822265624	152.4392395019531	1200.341674804688	-835.3645629882811	191.0234832763672	1168.026245117188	-827.3807983398436	218.3426818847656	1256.111083984375	-805.2210693359374	237.1858062744141	1291.403564453125	-874.2218627929686	
63	0.31	133.4725494384766	1334.059448242188	-2236.962158203125	211.8028411865234	1357.955200195312	-217.2663269042968	451.6233825683594	1548.5087890625	-1195.526733398438	400.5263977050781	1572.507202148438	-1132.587524414062	407.4693298339844	1570.570068359375	-1267.97802734375	218.8841857910156	1414.079467773438	-1201.066040039062	122.6899185180664	1265.061401367188	-1208.74462890625	105.646614074707	1232.357788085938	-1227.491333007812	98.77543640136719	1224.66259765625	-1178.35546875	90.03619384765625	1169.43505859375	-1213.71826171875	80.15476989746094	1102.776977539062	-1213.453979492188	53.4196891784668	1072.045166015625	-1230.479858398438	52.87502670288086	1068.325439453125	-1180.376953125	35.34692001342773	1011.282409667969	-1210.096923828125	21.39401817321777	931.0328369140626	-1234.590087890625	21.79703712463379	927.9893188476564	-1182.979614257812	8.633065223693848	869.7279052734376	-1212.02490234375	128.9601593017578	660.0978393554689	-1442.143920898438	109.2299652099609	587.2600097656251	-1416.821899414062	147.2166595458984	601.3516845703126	-1446.861938476562	155.6643524169922	332.6950683593751	-1527.663818359375	112.9791412353516	268.172088623047	-1508.749389648438	157.8518829345703	270.6773681640626	-1532.372680664062	109.1674194335938	68.79489898681649	-1466.685180664062	312.5917358398438	50.6785545349122	-1542.005126953125	236.1924285888672	27.05849647521983	-1621.071044921875	104.2572326660156	665.7407836914064	-986.49755859375	159.1939086914062	634.6047363281251	-937.283203125	129.4308319091797	611.3873291015626	-969.412841796875	121.0815658569336	350.6695861816407	-898.4971923828125	144.5634918212891	280.7919006347657	-871.489990234375	108.2864456176758	289.8203430175782	-904.055419921875	89.50904083251953	62.5392570495606	-966.4824829101562	279.2987060546875	48.01548004150396	-868.4154663085938	189.9559020996094	38.10916900634771	-798.5454711914062	360.3454284667969	1279.380981445312	-1208.20361328125	349.9203186035156	1132.75146484375	-1205.567749023438	254.8902130126953	1377.408569335938	-1368.361572265625	149.1824340820312	1252.462158203125	-1456.204223632812	105.7520370483398	1205.128662109375	-1442.32861328125	136.5813751220703	1193.804565429688	-1481.658569335938	110.4096832275391	1124.042236328125	-1548.790893554688	179.4475860595703	1125.281860351562	-1587.809326171875	148.4907989501953	1163.696655273438	-1576.63623046875	197.6950531005859	1246.489135742188	-1620.189208984375	207.293701171875	1278.097290039062	-1548.808227539062	274.1262817382812	1371.9501953125	-1042.505981445312	172.5347747802734	1249.84228515625	-958.1350097656249	153.4459075927734	1192.3447265625	-931.7294921874999	129.3875732421875	1203.590576171875	-976.6009521484374	156.5340881347656	1120.622436523438	-849.4907226562499	152.6619873046875	1199.242309570312	-835.2628173828124	191.1863708496094	1166.861938476562	-827.2656860351561	218.6900939941406	1254.893432617188	-805.1719970703124	237.5928497314453	1290.104248046875	-874.1940307617186	
64	0.315	133.879150390625	1332.80029296875	-2236.948486328125	212.4055023193359	1356.790771484375	-217.2666625976562	452.2567138671875	1546.847290039062	-1195.511352539062	401.1533203125	1570.841918945312	-1132.571533203125	408.0995483398438	1568.906005859375	-1267.958984375	219.4600830078125	1412.717041015625	-1201.049072265625	122.9029006958008	1263.919311523438	-1208.724609375	105.7484283447266	1231.301513671875	-1227.509155273438	98.87148284912109	1223.60107421875	-1178.375122070312	89.91625213623047	1168.421020507812	-1213.76904296875	79.85793304443359	1101.787353515625	-1213.51025390625	52.9660530090332	1071.08349609375	-1230.560180664062	52.39895629882812	1067.382568359375	-1180.460815429688	34.70246887207031	1010.386962890625	-1210.177612304688	20.53409194946289	929.7653808593751	-1234.6611328125	20.95606994628906	926.8076171875001	-1183.047607421875	7.88145637512207	868.4775390625001	-1211.998046875	129.3533325195312	659.1728515625001	-1443.101196289062	109.9607162475586	586.1262207031251	-1418.224487304688	147.9780578613281	600.5737304687501	-1448.051147460938	156.8363037109375	332.5964355468751	-1528.92724609375	113.8697891235352	268.3164367675782	-1509.82373046875	158.7934265136719	270.5500488281251	-1533.382690429688	109.1856460571289	68.81980895996102	-1466.682739257812	312.5966186523438	50.67327499389658	-1542.004516601562	236.1904907226562	27.0574951171876	-1621.072998046875	104.4455184936523	664.7899169921876	-985.4269409179688	159.6001434326172	634.1787719726564	-936.1309204101562	129.9844665527344	610.6576538085939	-968.1696166992188	122.1615600585938	350.5771789550782	-897.1766357421875	145.4575042724609	280.5140686035157	-870.5426025390625	109.159538269043	289.7958679199219	-902.991943359375	89.48861694335938	62.56329345703131	-966.4780883789062	279.2943420410156	48.01278305053716	-868.4005737304688	189.9568939208984	38.11035156250005	-798.5470581054688	360.5951538085938	1277.614379882812	-1208.216552734375	349.7350769042969	1131.03125	-1205.5732421875	255.4513854980469	1375.918090820312	-1368.388305664062	149.44580078125	1251.20361328125	-1456.25341796875	105.9092178344727	1203.971435546875	-1442.377807617188	136.5926513671875	1192.573608398438	-1481.74072265625	110.4129409790039	1122.886840820312	-1548.839965820312	179.4524078369141	1123.989868164062	-1587.855346679688	148.6011505126953	1162.46484375	-1576.671752929688	197.9625701904297	1245.162475585938	-1620.203857421875	207.6295928955078	1276.728393554688	-1548.813720703125	274.7043762207031	1370.416748046875	-1042.488525390625	172.8276824951172	1248.5732421875	-958.0521240234374	153.6133270263672	1191.119262695312	-931.6156616210936	129.5654602050781	1202.402465820312	-976.4860839843749	156.5652923583984	1119.459106445312	-849.3455810546874	152.8732452392578	1198.091552734375	-835.1647949218749	191.3375854492188	1165.64208984375	-827.1520385742186	219.0348815917969	1253.61572265625	-805.1228027343749	238.0000305175781	1288.744750976562	-874.1655883789061	
